#!OML:ASF H:\Dans Jumps\Project 1\Capture day 1\Session 1\subject.ASF
:FULLY-SPECIFIED
:DEGREES
399
root 0.241578 16.8602 -6.92939 19.9726 2.59916 0.877973
lowerback -1.15809 -0.745289 -2.4844
upperback -0.231883 -0.970339 1.30561
thorax 0.47543 -0.489995 2.71707
lowerneck -13.4408 0.338742 -2.34063
upperneck 20.6244 1.10962 -0.453314
head 8.64325 0.292812 0.363879
rclavicle 2.69353e-014 1.39149e-015
rhumerus -24.1408 -3.34632 -78.0747
rradius 38.4574
rwrist 27.0642
rhand -18.6722 -24.0246
rfingers 7.12502
rthumb 7.62152 -53.8673
lclavicle 2.69353e-014 1.39149e-015
lhumerus -24.1764 -6.68308 80.1103
lradius 25.9222
lwrist 18.1538
lhand -27.2238 -6.68995
lfingers 7.12502
lthumb -0.636245 23.2888
rfemur -7.87974 -4.64204 19.0712
rtibia 33.3996
rfoot -15.6852 -11.6684
rtoes -29.2574
lfemur -13.93 8.43469 -14.7558
ltibia 40.6554
lfoot -8.29972 0.860116
ltoes -37.3682
400
root 0.242178 17.0549 -6.57454 18.8369 2.76262 0.94296
lowerback -2.30096 -0.796811 -2.53879
upperback 0.000772364 -1.01187 1.26646
thorax 1.3578 -0.52692 2.68917
lowerneck -12.5873 0.330518 -2.39178
upperneck 21.6213 1.07867 -0.362779
head 8.8256 0.274652 0.399867
rclavicle 1.2921e-014 -3.77691e-015
rhumerus -24.9543 -3.06918 -77.9248
rradius 39.0332
rwrist 26.7281
rhand -18.711 -23.8994
rfingers 7.12502
rthumb 7.58406 -53.7435
lclavicle 1.2921e-014 -3.77691e-015
lhumerus -25.0607 -7.99936 80.1131
lradius 26.1352
lwrist 19.1241
lhand -26.687 -6.46786
lfingers 7.12502
lthumb -0.117806 23.5118
rfemur -5.42181 -4.63589 18.8151
rtibia 32.2622
rfoot -10.598 -10.1734
rtoes -28.6454
lfemur -11.5896 7.31033 -14.3459
ltibia 39.1603
lfoot -3.05689 -1.66446
ltoes -35.812
401
root 0.242384 17.2568 -6.22681 17.7537 2.96634 0.907454
lowerback -3.3216 -0.847786 -2.53989
upperback 0.23798 -1.05664 1.28469
thorax 2.17766 -0.564377 2.69152
lowerneck -11.8184 0.332149 -2.43587
upperneck 22.5341 1.05835 -0.266977
head 8.99576 0.263326 0.438
rclavicle -3.8763e-015 4.37326e-015
rhumerus -25.6567 -2.97541 -77.7045
rradius 39.3904
rwrist 26.4015
rhand -18.6443 -23.7949
rfingers 7.12502
rthumb 7.64849 -53.6366
lclavicle -3.8763e-015 4.37326e-015
lhumerus -25.8949 -9.13281 80.1386
lradius 26.2846
lwrist 19.9339
lhand -26.2089 -6.17503
lfingers 7.12502
lthumb 0.343984 23.8044
rfemur -3.3774 -4.60204 18.6983
rtibia 31.5107
rfoot -5.03846 -9.00639
rtoes -26.6647
lfemur -9.65332 6.14864 -13.927
ltibia 38.0435
lfoot 2.54068 -3.86647
ltoes -33.2545
402
root 0.242108 17.4629 -5.88894 16.793 3.2243 0.780947
lowerback -4.27025 -0.912182 -2.47921
upperback 0.468304 -1.1258 1.34825
thorax 2.9529 -0.612489 2.70485
lowerneck -11.1298 0.346238 -2.45634
upperneck 23.3133 1.04802 -0.165053
head 9.13575 0.260652 0.475459
rclavicle -5.66536e-015 4.96962e-015
rhumerus -26.2146 -3.04324 -77.4442
rradius 39.5214
rwrist 26.1151
rhand -18.4855 -23.72
rfingers 7.12502
rthumb 7.80176 -53.556
lclavicle -5.66536e-015 4.96962e-015
lhumerus -26.6574 -10.0604 80.1582
lradius 26.3566
lwrist 20.5514
lhand -25.8243 -5.86352
lfingers 7.12502
lthumb 0.715428 24.115
rfemur -1.83679 -4.58666 18.7233
rtibia 31.2166
rfoot 0.860316 -8.12075
rtoes -22.8767
lfemur -8.25259 5.02894 -13.5056
ltibia 37.4733
lfoot 8.16034 -5.71094
ltoes -29.4779
403
root 0.2412 17.6706 -5.56316 16.0065 3.53715 0.58027
lowerback -5.18069 -0.996459 -2.35717
upperback 0.682383 -1.22976 1.43991
thorax 3.69336 -0.675722 2.70944
lowerneck -10.5205 0.368301 -2.4564
upperneck 23.9288 1.03939 -0.0454583
head 9.23438 0.264124 0.515593
rclavicle 6.06293e-015 9.93923e-016
rhumerus -26.6239 -3.26247 -77.1789
rradius 39.4395
rwrist 25.9285
rhand -18.291 -23.6653
rfingers 7.12502
rthumb 7.98949 -53.4943
lclavicle 6.06293e-015 9.93923e-016
lhumerus -27.3359 -10.7704 80.1464
lradius 26.3558
lwrist 20.9945
lhand -25.5688 -5.55034
lfingers 7.12502
lthumb 0.962173 24.4272
rfemur -0.866398 -4.61171 18.8781
rtibia 31.4602
rfoot 6.80006 -7.41965
rtoes -17.481
lfemur -7.48284 4.03656 -13.0864
ltibia 37.5971
lfoot 13.2842 -7.09064
ltoes -25.0664
404
root 0.239214 17.8769 -5.25201 15.4085 3.90607 0.343473
lowerback -6.04667 -1.10465 -2.20108
upperback 0.880058 -1.37363 1.5408
thorax 4.39575 -0.756331 2.69938
lowerneck -9.9759 0.390398 -2.44652
upperneck 24.354 1.0213 0.0993049
head 9.27908 0.268702 0.561246
rclavicle -1.89839e-014 -5.96354e-016
rhumerus -26.8928 -3.62267 -76.9396
rradius 39.1764
rwrist 25.9055
rhand -18.1213 -23.6688
rfingers 7.12502
rthumb 8.1533 -53.4915
lclavicle -1.89839e-014 -5.96354e-016
lhumerus -27.9055 -11.2666 80.0886
lradius 26.2822
lwrist 21.3334
lhand -25.4182 -5.25687
lfingers 7.12502
lthumb 1.10763 24.72
rfemur -0.490289 -4.67666 19.131
rtibia 32.3217
rfoot 12.397 -6.84386
rtoes -11.0591
lfemur -7.37459 3.22757 -12.6887
ltibia 38.5028
lfoot 17.4817 -7.94573
ltoes -20.5752
405
root 0.235628 18.0788 -4.95777 14.9788 4.31227 0.111688
lowerback -6.82785 -1.23135 -2.05138
upperback 1.06995 -1.54755 1.63577
thorax 5.04597 -0.849887 2.68194
lowerneck -9.51077 0.408183 -2.4195
upperneck 24.6024 0.992595 0.248407
head 9.27715 0.271947 0.603918
rclavicle 3.22031e-014 -2.10712e-014
rhumerus -27.029 -4.10723 -76.7464
rradius 38.7689
rwrist 26.0659
rhand -18.0148 -23.7518
rfingers 7.12502
rthumb 8.25604 -53.5704
lclavicle 3.22031e-014 -2.10712e-014
lhumerus -28.3431 -11.5579 79.9812
lradius 26.1383
lwrist 21.6443
lhand -25.3258 -4.99358
lfingers 7.12502
lthumb 1.19689 24.9828
rfemur -0.693213 -4.75792 19.4388
rtibia 33.8567
rfoot 17.2393 -6.34699
rtoes -4.41389
lfemur -7.88814 2.63329 -12.3419
ltibia 40.1902
lfoot 20.4806 -8.27067
ltoes -16.6251
406
root 0.230173 18.273 -4.68234 14.6685 4.73033 -0.0823048
lowerback -7.45451 -1.3657 -1.94371
upperback 1.2622 -1.73324 1.71705
thorax 5.61448 -0.948248 2.67182
lowerneck -9.12106 0.416599 -2.39525
upperneck 24.6981 0.95101 0.401598
head 9.23617 0.270581 0.646653
rclavicle -1.12313e-014 1.98785e-016
rhumerus -27.0524 -4.69995 -76.604
rradius 38.2531
rwrist 26.3897
rhand -17.9927 -23.8916
rfingers 7.12502
rthumb 8.27742 -53.7094
lclavicle -1.12313e-014 1.98785e-016
lhumerus -28.639 -11.6537 79.8338
lradius 25.9344
lwrist 21.9747
lhand -25.2556 -4.738
lfingers 7.12502
lthumb 1.26475 25.238
rfemur -1.42298 -4.8467 19.7572
rtibia 36.0744
rfoot 21.0231 -5.86122
rtoes 1.44905
lfemur -8.92588 2.25329 -12.0756
ltibia 42.5737
lfoot 22.225 -8.14632
ltoes -13.6124
